<svg xmlns="http://www.w3.org/2000/svg" width="64pt" height="64pt" style="isolation:isolate" viewBox="0 0 64 64" id="user"><defs><clipPath id="a"><path d="M0 0h64v64H0z"/></clipPath></defs><g clip-path="url('#a')"><path d="M19.247 18.468c-1.864-6.957 2.337-14.137 9.375-16.023C35.66.559 42.888 4.677 44.753 11.634c1.864 6.958-2.337 14.138-9.375 16.024-7.038 1.886-14.266-2.232-16.131-9.19zm24.756 12.794c9.173 2.666 17.009 12.571 17.009 24.291v3.223A3.225 3.225 0 0 1 57.788 62H6.212a3.225 3.225 0 0 1-3.224-3.224v-3.223c0-11.72 7.836-21.625 17.009-24.291.854-.248 1.989.122 2.533.826 1.416 1.834 5.209 3.834 9.47 3.834 4.261 0 8.054-2 9.47-3.834.544-.704 1.679-1.074 2.533-.826z"/></g></svg>